<?xml version="1.0" encoding="UTF-8" standalone="no"?>
<svg width="25px" height="25px" viewBox="0 0 25 25" version="1.1" xmlns="http://www.w3.org/2000/svg" xmlns:xlink="http://www.w3.org/1999/xlink" xmlns:sketch="http://www.bohemiancoding.com/sketch/ns">
    <g stroke="none" stroke-width="1" fill="none" fill-rule="evenodd">
        <g fill="#33C8D0">
            <path d="M12.5,22 C17.7467051,22 22,17.7467051 22,12.5 C22,7.25329488 17.7467051,3 12.5,3 C7.25329488,3 3,7.25329488 3,12.5 C3,17.7467051 7.25329488,22 12.5,22 Z M12.5,9.94999981 C11.6719629,9.94999981 11,9.27798757 11,8.44999981 C11,7.62201205 11.6720122,6.94999981 12.5,6.94999981 C13.3265075,6.94999981 14,7.62201205 14,8.44999981 C14,9.27798757 13.3280371,9.94999981 12.5,9.94999981 L12.5,9.94999981 Z M12.5,18.2907801 C11.6719629,18.2907801 11,17.7028954 11,16.9756645 L11,12.7151153 C11,11.9891389 11.6720122,11.3999996 12.5,11.3999996 C13.3265075,11.3999996 14,11.9891822 14,12.7151153 L14,16.9756645 C14,17.7029387 13.3265075,18.2907801 12.5,18.2907801 Z"></path>
        </g>
    </g>
</svg>