<?xml version="1.0" encoding="UTF-8" standalone="no"?>
<svg width="25px" height="25px" viewBox="0 0 25 25" version="1.1" xmlns="http://www.w3.org/2000/svg" xmlns:xlink="http://www.w3.org/1999/xlink" xmlns:sketch="http://www.bohemiancoding.com/sketch/ns">
    <g stroke="none" stroke-width="1" fill="none" fill-rule="evenodd">
        <g fill="#F9A956">
            <path d="M13.6848869,3.63478884 C13.4564887,3.24478115 13.0088993,3 12.5217452,3 C12.0332882,3 11.5870452,3.24359691 11.3573006,3.63360461 L2.15648559,19.2335967 C1.93733791,19.608012 1.94919429,20.0567972 2.18684314,20.4168043 C2.42579489,20.7779956 2.85622942,21 3.31962731,21 L21.6789999,21 C22.1437441,21 22.5727889,20.7791799 22.8117841,20.4168043 C23.0507358,20.0556129 23.0626356,19.6068278 22.8447909,19.2348204 L13.6848869,3.63478884 Z M12.5,18.2998292 C11.6719629,18.2998292 11,17.627817 11,16.7998292 C11,15.9718415 11.6720122,15.2998292 12.5,15.2998292 C13.3265075,15.2998292 14,15.9718415 14,16.7998292 C14,17.627817 13.3280371,18.2998292 12.5,18.2998292 L12.5,18.2998292 Z M12.5,13.8416898 C11.6719629,13.8416898 11,13.2538051 11,12.5265741 L11,9.26602493 C11,8.54004855 11.6720122,7.95090927 12.5,7.95090927 C13.3265075,7.95090927 14,8.54009181 14,9.26602493 L14,12.5265741 C14,13.2538483 13.3265075,13.8416898 12.5,13.8416898 Z"></path>
        </g>
    </g>
</svg>